<svg id="Base" xmlns="http://www.w3.org/2000/svg" width="324.54" height="84.7" viewBox="0 0 324.54 84.7"><title>aspect-capital-logo-blue</title><text transform="translate(0 -49.96)" style="font-size:14px;fill:#9ea5b5;font-family:Effra-Light, Effra;letter-spacing:-0.004673549107142857em">A<tspan x="8.81" y="0" style="letter-spacing:-0.007533482142857143em">l</tspan><tspan x="11.27" y="0" style="letter-spacing:-0.009974888392857142em">l </tspan><tspan x="16.08" y="0" style="letter-spacing:-0.007672991071428571em">r</tspan><tspan x="20.69" y="0" style="letter-spacing:-0.008928571428571428em">i</tspan><tspan x="23.19" y="0" style="letter-spacing:-0.006766183035714286em">g</tspan><tspan x="30.57" y="0" style="letter-spacing:-0.020228794642857144em">h</tspan><tspan x="37.73" y="0" style="letter-spacing:0.009905133928571428em">t</tspan><tspan x="42.84" y="0" style="letter-spacing:-0.009974888392857142em">s </tspan><tspan x="51.56" y="0" style="letter-spacing:-0.03173828125em">r</tspan><tspan x="55.84" y="0" style="letter-spacing:-0.018205915178571428em">e</tspan><tspan x="63.06" y="0" style="letter-spacing:-0.017159598214285716em">s</tspan><tspan x="69.28" y="0" style="letter-spacing:-0.011928013392857142em">e</tspan><tspan x="76.59" y="0" style="letter-spacing:0.022879464285714284em">r</tspan><tspan x="81.63" y="0" style="letter-spacing:-0.025669642857142856em">v</tspan><tspan x="87.75" y="0" style="letter-spacing:-0.0107421875em">e</tspan><tspan x="95.08" y="0" style="letter-spacing:-0.009974888392857142em">d © </tspan><tspan x="118.43" y="0" style="letter-spacing:0.0013950892857142857em">A</tspan><tspan x="127.33" y="0" style="letter-spacing:-0.017717633928571428em">s</tspan><tspan x="133.55" y="0" style="letter-spacing:-0.006766183035714286em">p</tspan><tspan x="140.98" y="0" style="letter-spacing:-0.0107421875em">e</tspan><tspan x="148.31" y="0" style="letter-spacing:0.00146484375em">c</tspan><tspan x="155.26" y="0" style="letter-spacing:-0.010044642857142858em">t </tspan><tspan x="162.48" y="0" style="letter-spacing:-0.009207589285714286em">Capi</tspan><tspan x="188.41" y="0" style="letter-spacing:-0.00006975446428571428em">t</tspan><tspan x="193.38" y="0" style="letter-spacing:-0.007603236607142857em">a</tspan><tspan x="200.16" y="0" style="letter-spacing:-0.010044642857142858em">l L</tspan><tspan x="212.4" y="0" style="letter-spacing:-0.00830078125em">i</tspan><tspan x="214.9" y="0" style="letter-spacing:-0.0078125em">m</tspan><tspan x="226.65" y="0" style="letter-spacing:-0.009207589285714286em">i</tspan><tspan x="229.14" y="0" style="letter-spacing:-0.023228236607142856em">t</tspan><tspan x="233.78" y="0" style="letter-spacing:-0.010672433035714286em">e</tspan><tspan x="241.11" y="0" style="letter-spacing:-0.009974888392857142em">d </tspan><tspan x="250.9" y="0" style="letter-spacing:-0.024693080357142856em">2</tspan><tspan x="258.18" y="0" style="letter-spacing:-0.05085100446428571em">0</tspan><tspan x="265.1" y="0" style="letter-spacing:-0.08342633928571429em">1</tspan><tspan x="271.56" y="0" style="letter-spacing:-0.009974888392857142em">7</tspan><tspan style="letter-spacing:-0.003976004464285714em"><tspan x="0" y="21">U</tspan><tspan x="9.35" y="21" style="letter-spacing:-0.010044642857142858em">K </tspan><tspan x="19.66" y="21" style="letter-spacing:-0.03173828125em">r</tspan><tspan x="23.93" y="21" style="letter-spacing:-0.010672433035714286em">e</tspan><tspan x="31.26" y="21" style="letter-spacing:-0.00732421875em">g</tspan><tspan x="38.63" y="21" style="letter-spacing:-0.01904296875em">i</tspan><tspan x="40.98" y="21" style="letter-spacing:-0.007742745535714286em">s</tspan><tspan x="47.34" y="21" style="letter-spacing:-0.023158482142857144em">t</tspan><tspan x="51.99" y="21" style="letter-spacing:-0.011928013392857142em">e</tspan><tspan x="59.29" y="21" style="letter-spacing:-0.03166852678571429em">r</tspan><tspan x="63.57" y="21" style="letter-spacing:-0.0107421875em">e</tspan><tspan x="70.89" y="21" style="letter-spacing:-0.009974888392857142em">d </tspan><tspan x="80.68" y="21" style="letter-spacing:-0.028738839285714284em">c</tspan><tspan x="87.21" y="21" style="letter-spacing:-0.011928013392857142em">o</tspan><tspan x="94.96" y="21" style="letter-spacing:-0.007672991071428571em">m</tspan><tspan x="106.71" y="21" style="letter-spacing:-0.015206473214285714em">p</tspan><tspan x="114.03" y="21" style="letter-spacing:-0.009347098214285714em">a</tspan><tspan x="120.79" y="21" style="letter-spacing:-0.027273995535714284em">n</tspan><tspan x="127.88" y="21" style="letter-spacing:-0.009974888392857142em">y </tspan><tspan x="136.61" y="21" style="letter-spacing:-0.008649553571428572em">n</tspan><tspan x="143.96" y="21" style="letter-spacing:-0.023158482142857144em">o</tspan><tspan x="151.56" y="21" style="letter-spacing:-0.009974888392857142em">. </tspan><tspan x="156.87" y="21" style="letter-spacing:-0.02783203125em">3</tspan><tspan x="164.11" y="21" style="letter-spacing:-0.03166852678571429em">4</tspan><tspan x="171.29" y="21" style="letter-spacing:-0.06340680803571429em">9</tspan><tspan x="178.04" y="21" style="letter-spacing:-0.08454241071428571em">1</tspan><tspan x="184.48" y="21" style="letter-spacing:-0.06884765625em">1</tspan><tspan x="191.15" y="21" style="letter-spacing:-0.03424944196428571em">6</tspan><tspan x="198.3" y="21" style="letter-spacing:-0.009974888392857142em">9</tspan></tspan><tspan style="letter-spacing:-0.009974888392857142em"><tspan x="0" y="42"> </tspan></tspan></text><polygon points="324.54 0 324.54 0 324.54 0 324.54 0" style="fill:#fff"/><path d="M324.54,0,280.21,42.83a26.1,26.1,0,0,0,1-19.89L267.83,30A33.18,33.18,0,0,1,280,64.44Z" style="fill:#9f0b11"/><polygon points="324.54 0 324.54 0 324.54 0 324.54 0" style="fill:#fff"/><polygon points="324.54 0 324.53 0 324.52 0.01 324.54 0" style="fill:#fff"/><path d="M324.53,0,290.13,22.84a17.55,17.55,0,0,0,3-13.51l-17,5a26.16,26.16,0,0,1,4.07,28.46L324.54,0h0Z" style="fill:#133b54"/><path d="M290.9,3.59a17.36,17.36,0,0,1,2.2,5.74,17.55,17.55,0,0,1-3,13.51L324.53,0h0Z" style="fill:#5385b3"/><path d="M9.36,60.24a7.53,7.53,0,0,0,2.78-.52,5,5,0,0,0,2-1.38,2.08,2.08,0,0,0,.95-1.64V54.12a14.08,14.08,0,0,0-2.24-.63,12.09,12.09,0,0,0-2.33-.24,6.17,6.17,0,0,0-3.67,1,3,3,0,0,0-1.42,2.57A3.08,3.08,0,0,0,6.6,59.27a4.06,4.06,0,0,0,2.76,1M7.72,64.47a8.58,8.58,0,0,1-3.06-.54A7.34,7.34,0,0,1,2.2,62.42,7,7,0,0,1,.58,60.15,6.85,6.85,0,0,1,0,57.31a6.29,6.29,0,0,1,.71-3A6.76,6.76,0,0,1,2.7,52a9.83,9.83,0,0,1,3-1.49A13.26,13.26,0,0,1,9.62,50a16.86,16.86,0,0,1,3,.26,12.18,12.18,0,0,1,2.57.73V49.72a4.53,4.53,0,0,0-1.27-3.45,5.29,5.29,0,0,0-3.77-1.21,10,10,0,0,0-3.54.65A16.35,16.35,0,0,0,3,47.6L1.25,43.94A16.69,16.69,0,0,1,10.66,41q4.87,0,7.57,2.39t2.7,6.92v7a1.94,1.94,0,0,0,.34,1.3,1.68,1.68,0,0,0,1.21.43V64a13.12,13.12,0,0,1-1.53.24c-.47,0-.88.07-1.23.07a4,4,0,0,1-2.5-.75,3.1,3.1,0,0,1-1.08-1.92L16,60.41a10,10,0,0,1-3.67,3,10.54,10.54,0,0,1-4.61,1" style="fill:#003e6a"/><path d="M35.37,64.47a20.13,20.13,0,0,1-2.87-.21,24.51,24.51,0,0,1-2.91-.6,20.4,20.4,0,0,1-2.72-.95,13.05,13.05,0,0,1-2.28-1.25l2.33-3.93a15.32,15.32,0,0,0,8.33,2.8,5.35,5.35,0,0,0,2.85-.64,2.07,2.07,0,0,0,1-1.86A1.89,1.89,0,0,0,37.89,56a23.12,23.12,0,0,0-4.12-1.27A34.36,34.36,0,0,1,30,53.68a9.17,9.17,0,0,1-2.5-1.3,4.43,4.43,0,0,1-1.38-1.68,5.39,5.39,0,0,1-.43-2.24A6.73,6.73,0,0,1,28.32,43a8.88,8.88,0,0,1,2.89-1.49,12.1,12.1,0,0,1,3.6-.52,16,16,0,0,1,4.81.75,19.31,19.31,0,0,1,4.46,2.05l-2.37,3.58a15.6,15.6,0,0,0-3.58-1.75,11,11,0,0,0-3.36-.54,5.18,5.18,0,0,0-2.61.6,2.06,2.06,0,0,0-1.06,1.94,1.75,1.75,0,0,0,1,1.68,19.1,19.1,0,0,0,3.6,1.16q2.42.61,4.12,1.21a11.66,11.66,0,0,1,2.81,1.38,4.79,4.79,0,0,1,1.6,1.79,5.51,5.51,0,0,1,.5,2.44,6.56,6.56,0,0,1-.67,3,6.49,6.49,0,0,1-1.88,2.27,8.68,8.68,0,0,1-3,1.42,14.15,14.15,0,0,1-3.86.5" style="fill:#003e6a"/><path d="M65.11,52.69a7.92,7.92,0,0,1-.43,2.59,7.14,7.14,0,0,1-1.21,2.2A5.8,5.8,0,0,1,61.59,59a5.18,5.18,0,0,1-2.39.56,5.42,5.42,0,0,1-3.45-1.27,7.69,7.69,0,0,1-2.37-3.21V49.76a5,5,0,0,1,.89-1.51A7,7,0,0,1,55.57,47a5.91,5.91,0,0,1,1.6-.8A5.41,5.41,0,0,1,58.85,46a5.93,5.93,0,0,1,2.48.52,6.12,6.12,0,0,1,2,1.42A6.56,6.56,0,0,1,64.63,50a7.31,7.31,0,0,1,.47,2.65m5.91,0a12.78,12.78,0,0,0-.8-4.51A11.64,11.64,0,0,0,68,44.48,10.48,10.48,0,0,0,64.68,42,9.7,9.7,0,0,0,60.45,41a9,9,0,0,0-4.57,1.14,9.26,9.26,0,0,0-3.23,3.13V41.43h-5V73.22h.23l5.55-3V60.07a8.45,8.45,0,0,0,3.1,3.21,9.42,9.42,0,0,0,8.61.28,9.49,9.49,0,0,0,3.15-2.5,11.8,11.8,0,0,0,2.05-3.75A14.27,14.27,0,0,0,71,52.69" style="fill:#003e6a"/><path d="M91.24,50.84a6,6,0,0,0-1.88-4.08,6.05,6.05,0,0,0-6.21-1.12,5.66,5.66,0,0,0-1.79,1.14,5.9,5.9,0,0,0-1.27,1.77,6.18,6.18,0,0,0-.58,2.29ZM85.38,64.47a12.5,12.5,0,0,1-4.92-.93,11.08,11.08,0,0,1-6.15-6.23,11.91,11.91,0,0,1-.84-4.44,12.61,12.61,0,0,1,.82-4.55,11.09,11.09,0,0,1,2.37-3.75A11.33,11.33,0,0,1,80.44,42a12.55,12.55,0,0,1,5-.95,12.24,12.24,0,0,1,4.94.95,11.36,11.36,0,0,1,3.71,2.55,10.79,10.79,0,0,1,2.33,3.71,12.36,12.36,0,0,1,.8,4.4q0,.56,0,1.08a4.37,4.37,0,0,1-.11.86H79.6A6.71,6.71,0,0,0,80.25,57a5.8,5.8,0,0,0,3.19,2.89,6,6,0,0,0,2.16.39,6.65,6.65,0,0,0,3.26-.84,4.45,4.45,0,0,0,2.09-2.22l5,1.38a10.09,10.09,0,0,1-4,4.25,12.37,12.37,0,0,1-6.53,1.66" style="fill:#003e6a"/><path d="M99.35,52.73a12.31,12.31,0,0,1,.82-4.49,10.91,10.91,0,0,1,2.37-3.71A11.54,11.54,0,0,1,106.3,42a12.38,12.38,0,0,1,5-.95,11.88,11.88,0,0,1,6.32,1.6,10.21,10.21,0,0,1,3.91,4.18l-5.65,1.73a5.07,5.07,0,0,0-1.94-1.92,5.43,5.43,0,0,0-2.67-.67,5.51,5.51,0,0,0-2.33.5A5.73,5.73,0,0,0,107,47.84,6.42,6.42,0,0,0,105.76,50a8.08,8.08,0,0,0-.45,2.76,7.7,7.7,0,0,0,.47,2.76,6.94,6.94,0,0,0,1.27,2.16,5.57,5.57,0,0,0,1.88,1.4,5.37,5.37,0,0,0,2.29.5,5.55,5.55,0,0,0,2.87-.77,4.36,4.36,0,0,0,1.83-1.9l5.65,1.73a9.52,9.52,0,0,1-3.84,4.23,12.07,12.07,0,0,1-6.43,1.64,12.43,12.43,0,0,1-5-.95,11.24,11.24,0,0,1-6.15-6.32,12.1,12.1,0,0,1-.84-4.46" style="fill:#003e6a"/><path d="M138.65,62.87l-1.17-4.57c-.34.15-.8.32-1.38.52a5.32,5.32,0,0,1-1.77.3,2.47,2.47,0,0,1-1.55-.5,2,2,0,0,1-.65-1.7v-11h4.79V41.43h-4.79V34.1l-5.78,3.12v4.21h-2.93v4.44h2.93v13a6.25,6.25,0,0,0,.47,2.57,4.73,4.73,0,0,0,1.27,1.73,4.92,4.92,0,0,0,1.85,1,8.15,8.15,0,0,0,2.26.3,12.16,12.16,0,0,0,3.56-.52,24.94,24.94,0,0,0,2.87-1" style="fill:#003e6a"/><path d="M146.14,52.73a12.33,12.33,0,0,1,.82-4.49,11.22,11.22,0,0,1,2.31-3.69,10.76,10.76,0,0,1,3.56-2.48,11.28,11.28,0,0,1,4.57-.9A10.48,10.48,0,0,1,163,42.62a9.28,9.28,0,0,1,3.58,3.9l-2.85.9a6.91,6.91,0,0,0-2.63-2.7,7.4,7.4,0,0,0-3.75-1,7.58,7.58,0,0,0-3.21.69,8.22,8.22,0,0,0-2.59,1.88,8.61,8.61,0,0,0-1.73,2.82,10.41,10.41,0,0,0,0,7.16,9.12,9.12,0,0,0,1.77,2.91,8.44,8.44,0,0,0,2.61,1.94,7.25,7.25,0,0,0,3.17.71,7.73,7.73,0,0,0,2.13-.3,8.2,8.2,0,0,0,2-.84A7.09,7.09,0,0,0,163,59.51a4,4,0,0,0,.91-1.47l2.85.86a7.39,7.39,0,0,1-1.38,2.22,9.54,9.54,0,0,1-2.13,1.77,10.4,10.4,0,0,1-2.72,1.16,11.55,11.55,0,0,1-3.09.41A10.92,10.92,0,0,1,149.33,61,11.76,11.76,0,0,1,147,57.26a12.13,12.13,0,0,1-.84-4.53" style="fill:#003e6a"/><path d="M176.78,62.22a9.55,9.55,0,0,0,3.86-.84,7.53,7.53,0,0,0,3-2.31,4.5,4.5,0,0,0,.52-.84,2,2,0,0,0,.21-.84V53.73a17.94,17.94,0,0,0-3.06-.86,16.68,16.68,0,0,0-3.11-.3,9.26,9.26,0,0,0-5.11,1.27,4,4,0,0,0-2,3.52,4.72,4.72,0,0,0,.35,1.77,4.47,4.47,0,0,0,1.06,1.55,5.54,5.54,0,0,0,1.75,1.12,6.39,6.39,0,0,0,2.46.43m-.73,2.24a8.85,8.85,0,0,1-3.15-.54,7.34,7.34,0,0,1-2.44-1.49,6.79,6.79,0,0,1-1.57-2.2,6.35,6.35,0,0,1-.56-2.63,5.82,5.82,0,0,1,.69-2.83A6.48,6.48,0,0,1,171,52.6a9.42,9.42,0,0,1,3-1.4,14,14,0,0,1,3.86-.5,20.54,20.54,0,0,1,3.45.3,15.14,15.14,0,0,1,3.15.86v-2a6.48,6.48,0,0,0-1.7-4.72,6.13,6.13,0,0,0-4.6-1.75,10,10,0,0,0-3.6.69,17.39,17.39,0,0,0-3.65,2l-1-1.94a19.48,19.48,0,0,1,4.27-2.2,12.79,12.79,0,0,1,4.31-.73,8.9,8.9,0,0,1,6.51,2.37,8.77,8.77,0,0,1,2.41,6.56V60.24c0,.81.35,1.21,1,1.21V64l-.65.07-.52,0a2.61,2.61,0,0,1-1.57-.52,2,2,0,0,1-.8-1.55l-.09-1.77a9.77,9.77,0,0,1-3.86,3.09,11.53,11.53,0,0,1-4.85,1.1" style="fill:#003e6a"/><path d="M209.37,52.82a10.16,10.16,0,0,1-.56,3.34,9.13,9.13,0,0,1-1.62,2.89,8.29,8.29,0,0,1-2.52,2.05,6.91,6.91,0,0,1-3.28.77,7.06,7.06,0,0,1-2.44-.43,8.56,8.56,0,0,1-2.2-1.18,9.29,9.29,0,0,1-1.81-1.79,10.32,10.32,0,0,1-1.32-2.24v-6.9a4.76,4.76,0,0,1,.93-2.14,7.88,7.88,0,0,1,1.83-1.77,10.25,10.25,0,0,1,2.29-1.21,6.6,6.6,0,0,1,2.33-.45,7.55,7.55,0,0,1,3.3.73,8.41,8.41,0,0,1,2.65,2,9.55,9.55,0,0,1,1.77,2.89,9.32,9.32,0,0,1,.65,3.45m3,0a12.27,12.27,0,0,0-.8-4.36,12.09,12.09,0,0,0-2.22-3.73A10.88,10.88,0,0,0,206,42.15a9.55,9.55,0,0,0-4.29-1,9.18,9.18,0,0,0-4.79,1.31,10.88,10.88,0,0,0-3.58,3.43V41.56h-2.63V73.22h.37l2.57-1.39V59.38A11.43,11.43,0,0,0,197.16,63a9,9,0,0,0,5,1.45,9.15,9.15,0,0,0,4.12-.93A10.05,10.05,0,0,0,209.57,61a11.45,11.45,0,0,0,2.09-3.71,13.61,13.61,0,0,0,.73-4.49" style="fill:#003e6a"/><path d="M215.39,41.56h2.93V64h-2.93Zm0-4.7,0-2.64h2.93l0,2.64Z" style="fill:#003e6a"/><path d="M227.67,59.16V43.89h5.18V41.56h-5.18V34l-2.93,1.58v5.94h-3.11v2.33h3.11V60a4.36,4.36,0,0,0,.39,1.9,3.9,3.9,0,0,0,1,1.36,4.22,4.22,0,0,0,1.51.8,6.28,6.28,0,0,0,1.81.26,8.38,8.38,0,0,0,1.73-.17,13,13,0,0,0,1.47-.39q.65-.21,1.14-.43l.76-.34-.78-2.37a9.82,9.82,0,0,1-1.21.58,5.52,5.52,0,0,1-2.2.41,3,3,0,0,1-1.85-.58,2.37,2.37,0,0,1-.86-1.83" style="fill:#003e6a"/><path d="M244.09,62.22a9.56,9.56,0,0,0,3.86-.84,7.55,7.55,0,0,0,3-2.31,4.49,4.49,0,0,0,.52-.84,2,2,0,0,0,.22-.84V53.73a18,18,0,0,0-3.06-.86,16.65,16.65,0,0,0-3.1-.3,9.26,9.26,0,0,0-5.11,1.27,4,4,0,0,0-2,3.52,4.74,4.74,0,0,0,.35,1.77,4.46,4.46,0,0,0,1.06,1.55,5.53,5.53,0,0,0,1.75,1.12,6.38,6.38,0,0,0,2.46.43m-.73,2.24a8.84,8.84,0,0,1-3.15-.54,7.32,7.32,0,0,1-2.44-1.49,6.79,6.79,0,0,1-1.57-2.2,6.35,6.35,0,0,1-.56-2.63,5.83,5.83,0,0,1,.69-2.83,6.48,6.48,0,0,1,1.94-2.18,9.46,9.46,0,0,1,3-1.4,14,14,0,0,1,3.86-.5,20.57,20.57,0,0,1,3.45.3,15.13,15.13,0,0,1,3.15.86v-2a6.48,6.48,0,0,0-1.7-4.72,6.13,6.13,0,0,0-4.59-1.75,10,10,0,0,0-3.6.69,17.37,17.37,0,0,0-3.65,2l-1-1.94a19.45,19.45,0,0,1,4.27-2.2,12.79,12.79,0,0,1,4.31-.73,8.9,8.9,0,0,1,6.51,2.37,8.77,8.77,0,0,1,2.42,6.56V60.24q0,1.21,1,1.21V64l-.64.07-.52,0A2.6,2.6,0,0,1,253,63.6a2,2,0,0,1-.8-1.55l-.09-1.77a9.77,9.77,0,0,1-3.86,3.09,11.53,11.53,0,0,1-4.85,1.1" style="fill:#003e6a"/><path d="M266.31,63.52l-.52-2.37a7.18,7.18,0,0,1-1.21.35,5.88,5.88,0,0,1-1.12.13,2.58,2.58,0,0,1-1.94-.71,2.69,2.69,0,0,1-.69-2V33.69l-2.93,1.58V59.94a4.3,4.3,0,0,0,1.17,3.21,4.37,4.37,0,0,0,3.19,1.14,11.86,11.86,0,0,0,2-.21,9.69,9.69,0,0,0,2-.56" style="fill:#003e6a"/><polygon points="5.79 76.43 2.49 76.43 2.49 75.27 10.39 75.27 10.39 76.43 7.11 76.43 7.11 84.47 5.79 84.47 5.79 76.43" style="fill:#003e6a"/><path d="M11.3,75.27h1.23V79c.08-.11.18-.23.3-.36a2.2,2.2,0,0,1,.44-.36,2.73,2.73,0,0,1,.61-.28,2.61,2.61,0,0,1,.79-.11,2.28,2.28,0,0,1,1.86.73,3,3,0,0,1,.61,2v3.85H15.89V80.72a1.9,1.9,0,0,0-.39-1.32A1.4,1.4,0,0,0,14.42,79a1.68,1.68,0,0,0-.9.22,1.71,1.71,0,0,0-.57.57,2.57,2.57,0,0,0-.31.8,4.38,4.38,0,0,0-.1.92v3H11.3Z" style="fill:#003e6a"/><path d="M24.65,83.53a3.94,3.94,0,0,1-.33.32,2.81,2.81,0,0,1-.57.37,4.43,4.43,0,0,1-.83.31,4.07,4.07,0,0,1-1.08.13,3.63,3.63,0,0,1-1.36-.25,3,3,0,0,1-1.06-.7,3.15,3.15,0,0,1-.68-1.09,3.91,3.91,0,0,1-.24-1.41,3.66,3.66,0,0,1,.23-1.32,3.12,3.12,0,0,1,3-2,3,3,0,0,1,1.42.32,2.81,2.81,0,0,1,1,.84,3.61,3.61,0,0,1,.56,1.2,5.48,5.48,0,0,1,.18,1.41H19.75a2,2,0,0,0,.19.79,2,2,0,0,0,.46.62,2.23,2.23,0,0,0,.66.41,2.07,2.07,0,0,0,.79.15,2.86,2.86,0,0,0,1.34-.28,2.73,2.73,0,0,0,.76-.54ZM23.53,80.7A2.08,2.08,0,0,0,23,79.43a1.69,1.69,0,0,0-1.32-.52,2,2,0,0,0-.79.15,1.9,1.9,0,0,0-.6.4,1.8,1.8,0,0,0-.39.57,1.9,1.9,0,0,0-.15.67Z" style="fill:#003e6a"/><path d="M29.28,82.23a6.16,6.16,0,0,0,.43.45,3,3,0,0,0,.54.41,3,3,0,0,0,.68.29,2.84,2.84,0,0,0,.81.11,2.19,2.19,0,0,0,1.42-.41A1.36,1.36,0,0,0,33.68,82a1.27,1.27,0,0,0-.58-1.14,5,5,0,0,0-1.67-.61,5.06,5.06,0,0,1-1.08-.34,3,3,0,0,1-.83-.55,2.37,2.37,0,0,1-.55-.77,2.39,2.39,0,0,1-.19-1,2.44,2.44,0,0,1,.19-1,2.24,2.24,0,0,1,.58-.8,2.9,2.9,0,0,1,1-.55A3.94,3.94,0,0,1,31.86,75a4.14,4.14,0,0,1,1.17.14,3.58,3.58,0,0,1,.83.35,2.58,2.58,0,0,1,.55.43l.32.36-.88.81-.25-.25a2.39,2.39,0,0,0-.42-.31,2.74,2.74,0,0,0-.59-.26,2.69,2.69,0,0,0-.78-.1,2.2,2.2,0,0,0-.76.12,1.61,1.61,0,0,0-.52.3,1.15,1.15,0,0,0-.3.42,1.23,1.23,0,0,0-.1.47,1.12,1.12,0,0,0,.15.59,1.39,1.39,0,0,0,.42.43,2.68,2.68,0,0,0,.68.32c.27.09.58.17.93.26a7.11,7.11,0,0,1,1,.32,3.11,3.11,0,0,1,.88.54,2.46,2.46,0,0,1,.61.83A2.81,2.81,0,0,1,35,82a2.39,2.39,0,0,1-.25,1.09,2.65,2.65,0,0,1-.68.86,3.11,3.11,0,0,1-1,.57,4,4,0,0,1-1.28.2,4.29,4.29,0,0,1-1.18-.15,4.81,4.81,0,0,1-1-.39,4.16,4.16,0,0,1-.76-.52,3.64,3.64,0,0,1-.53-.56Z" style="fill:#003e6a"/><path d="M42.28,83.58a3.24,3.24,0,0,1-1.05.78,3.37,3.37,0,0,1-1.45.3,3.68,3.68,0,0,1-1.4-.25,3,3,0,0,1-1.73-1.78,3.9,3.9,0,0,1-.23-1.37,3.52,3.52,0,0,1,.25-1.32,3.26,3.26,0,0,1,1.76-1.81,3.62,3.62,0,0,1,2.79,0,3.21,3.21,0,0,1,1.06.79l-.81.79a2.09,2.09,0,0,0-.7-.56,2.15,2.15,0,0,0-1-.21,2.06,2.06,0,0,0-.89.19,1.92,1.92,0,0,0-.66.51,2.35,2.35,0,0,0-.41.74,2.67,2.67,0,0,0-.15.88,2.63,2.63,0,0,0,.15.86,2.33,2.33,0,0,0,.41.74,2,2,0,0,0,1.55.71,2.32,2.32,0,0,0,1-.21,2.09,2.09,0,0,0,.74-.57Z" style="fill:#003e6a"/><path d="M43.48,75.52h1.39v1.39H43.48Zm.08,2.54H44.8v6.41H43.56Z" style="fill:#003e6a"/><path d="M52.41,83.53a4.16,4.16,0,0,1-.33.32,2.81,2.81,0,0,1-.57.37,4.43,4.43,0,0,1-.83.31,4.07,4.07,0,0,1-1.08.13,3.63,3.63,0,0,1-1.36-.25,3,3,0,0,1-1.06-.7,3.15,3.15,0,0,1-.68-1.09,3.91,3.91,0,0,1-.24-1.41,3.66,3.66,0,0,1,.23-1.32,3.12,3.12,0,0,1,3-2,3,3,0,0,1,1.42.32,2.81,2.81,0,0,1,1,.84,3.61,3.61,0,0,1,.56,1.2,5.48,5.48,0,0,1,.18,1.41H47.52a2,2,0,0,0,.19.79,2,2,0,0,0,.46.62,2.23,2.23,0,0,0,.66.41,2.07,2.07,0,0,0,.79.15A2.86,2.86,0,0,0,51,83.32a2.73,2.73,0,0,0,.76-.54ZM51.3,80.7a2.08,2.08,0,0,0-.52-1.27,1.69,1.69,0,0,0-1.32-.52,2,2,0,0,0-.79.15,1.9,1.9,0,0,0-.6.4,1.8,1.8,0,0,0-.39.57,1.9,1.9,0,0,0-.15.67Z" style="fill:#003e6a"/><path d="M54,79.45v-.74q0-.31,0-.65h1.19l0,1c.08-.11.18-.23.3-.36a2,2,0,0,1,.44-.37,2.58,2.58,0,0,1,1.41-.39,2.28,2.28,0,0,1,1.86.73,3,3,0,0,1,.61,2v3.85H58.55V80.72a1.91,1.91,0,0,0-.39-1.32A1.4,1.4,0,0,0,57.07,79a1.61,1.61,0,0,0-1.47.79,2.54,2.54,0,0,0-.31.8,4.31,4.31,0,0,0-.1.92v3H54Z" style="fill:#003e6a"/><path d="M67,83.58a3.24,3.24,0,0,1-1.05.78,3.37,3.37,0,0,1-1.45.3,3.68,3.68,0,0,1-1.4-.25,3,3,0,0,1-1.73-1.78,3.9,3.9,0,0,1-.23-1.37,3.52,3.52,0,0,1,.25-1.32,3.26,3.26,0,0,1,1.76-1.81,3.62,3.62,0,0,1,2.79,0,3.21,3.21,0,0,1,1.06.79l-.81.79a2.09,2.09,0,0,0-.7-.56,2.15,2.15,0,0,0-1-.21,2.06,2.06,0,0,0-.89.19,1.92,1.92,0,0,0-.66.51,2.35,2.35,0,0,0-.41.74,2.67,2.67,0,0,0-.15.88,2.63,2.63,0,0,0,.15.86,2.33,2.33,0,0,0,.41.74,2,2,0,0,0,1.55.71,2.32,2.32,0,0,0,1-.21,2.09,2.09,0,0,0,.74-.57Z" style="fill:#003e6a"/><path d="M74.1,83.53a3.94,3.94,0,0,1-.33.32,2.81,2.81,0,0,1-.57.37,4.43,4.43,0,0,1-.83.31,4.07,4.07,0,0,1-1.08.13,3.63,3.63,0,0,1-1.36-.25,3,3,0,0,1-1.06-.7,3.15,3.15,0,0,1-.68-1.09,3.91,3.91,0,0,1-.24-1.41,3.66,3.66,0,0,1,.23-1.32,3.12,3.12,0,0,1,3-2,3,3,0,0,1,1.42.32,2.81,2.81,0,0,1,1,.84,3.63,3.63,0,0,1,.56,1.2,5.48,5.48,0,0,1,.18,1.41H69.21a2,2,0,0,0,.19.79,2,2,0,0,0,.46.62,2.23,2.23,0,0,0,.66.41,2.07,2.07,0,0,0,.79.15,2.86,2.86,0,0,0,1.34-.28,2.73,2.73,0,0,0,.76-.54ZM73,80.7a2.08,2.08,0,0,0-.52-1.27,1.69,1.69,0,0,0-1.32-.52,2,2,0,0,0-.79.15,1.9,1.9,0,0,0-.6.4,1.8,1.8,0,0,0-.39.57,1.9,1.9,0,0,0-.15.67Z" style="fill:#003e6a"/><path d="M81.23,84.66a3.41,3.41,0,0,1-1.37-.27,3.27,3.27,0,0,1-1.07-.74,3.5,3.5,0,0,1-.7-1.08,3.52,3.52,0,0,1,0-2.63,3.48,3.48,0,0,1,.7-1.08,3.25,3.25,0,0,1,1.07-.74,3.39,3.39,0,0,1,1.37-.27,3.35,3.35,0,0,1,2.43,1,3.43,3.43,0,0,1,.71,1.08,3.53,3.53,0,0,1,0,2.63,3.44,3.44,0,0,1-.71,1.08,3.34,3.34,0,0,1-2.43,1m0-1.08a2,2,0,0,0,.9-.2,2.12,2.12,0,0,0,.68-.52,2.27,2.27,0,0,0,.42-.74,2.63,2.63,0,0,0,.15-.86,2.59,2.59,0,0,0-.15-.85,2.28,2.28,0,0,0-.43-.75,2.16,2.16,0,0,0-.68-.53,1.93,1.93,0,0,0-.89-.2,2,2,0,0,0-.9.2,2.12,2.12,0,0,0-.68.52,2.27,2.27,0,0,0-.42.74,2.6,2.6,0,0,0-.15.86,2.54,2.54,0,0,0,.15.85,2.29,2.29,0,0,0,.43.74,2.15,2.15,0,0,0,.68.53,1.94,1.94,0,0,0,.89.2" style="fill:#003e6a"/><path d="M86.51,79.09H85.35v-1h1.16v-.52a3.07,3.07,0,0,1,.19-1.12,2.17,2.17,0,0,1,.5-.78,2,2,0,0,1,.71-.45,2.46,2.46,0,0,1,.84-.14,3.24,3.24,0,0,1,1,.16,2.4,2.4,0,0,1,.9.55l-.62.8a1.67,1.67,0,0,0-1.09-.43,1.13,1.13,0,0,0-.86.34,1.72,1.72,0,0,0-.32,1.19v.41h1.83v1H87.75v5.38H86.51Z" style="fill:#003e6a"/><rect x="93.26" y="75.27" width="1.32" height="9.2" style="fill:#003e6a"/><path d="M96.49,79.45v-.74q0-.31,0-.65h1.19l0,1c.08-.11.18-.23.3-.36a2.08,2.08,0,0,1,.44-.37,2.58,2.58,0,0,1,1.41-.39,2.28,2.28,0,0,1,1.86.73,3,3,0,0,1,.61,2v3.85h-1.24V80.72a1.91,1.91,0,0,0-.39-1.32A1.4,1.4,0,0,0,99.6,79a1.69,1.69,0,0,0-.9.22,1.72,1.72,0,0,0-.57.57,2.59,2.59,0,0,0-.31.8,4.38,4.38,0,0,0-.1.92v3H96.49Z" style="fill:#003e6a"/><polygon points="103.22 78.06 104.64 78.06 106.64 83.06 108.62 78.06 109.96 78.06 107.22 84.47 105.97 84.47 103.22 78.06" style="fill:#003e6a"/><path d="M116.76,83.53a4.12,4.12,0,0,1-.33.32,2.84,2.84,0,0,1-.57.37,4.49,4.49,0,0,1-.83.31,4.07,4.07,0,0,1-1.08.13,3.63,3.63,0,0,1-1.36-.25,3,3,0,0,1-1.06-.7,3.17,3.17,0,0,1-.68-1.09,3.94,3.94,0,0,1-.24-1.41,3.66,3.66,0,0,1,.23-1.32,3.13,3.13,0,0,1,.66-1.06,3.19,3.19,0,0,1,1-.71,3.13,3.13,0,0,1,1.29-.26,3,3,0,0,1,1.42.32,2.81,2.81,0,0,1,1,.84,3.63,3.63,0,0,1,.56,1.2,5.48,5.48,0,0,1,.18,1.41h-5.06a1.93,1.93,0,0,0,.19.79,2,2,0,0,0,.46.62,2.22,2.22,0,0,0,.66.41,2.06,2.06,0,0,0,.78.15,2.85,2.85,0,0,0,1.34-.28,2.72,2.72,0,0,0,.76-.54Zm-1.12-2.83a2.07,2.07,0,0,0-.52-1.27,1.68,1.68,0,0,0-1.32-.52,2,2,0,0,0-.79.15,1.91,1.91,0,0,0-.6.4A1.8,1.8,0,0,0,112,80a1.88,1.88,0,0,0-.15.67Z" style="fill:#003e6a"/><path d="M118.71,82.85a2.59,2.59,0,0,0,.83.55,2.82,2.82,0,0,0,1.12.21,2.39,2.39,0,0,0,1-.2.66.66,0,0,0,.41-.63.76.76,0,0,0-.09-.38.79.79,0,0,0-.3-.28,2.66,2.66,0,0,0-.56-.23l-.88-.23a5.27,5.27,0,0,1-.74-.22,2.5,2.5,0,0,1-.65-.37,1.83,1.83,0,0,1-.47-.55,1.59,1.59,0,0,1-.18-.78,1.55,1.55,0,0,1,.21-.82,1.92,1.92,0,0,1,.57-.59,2.75,2.75,0,0,1,.81-.37,3.49,3.49,0,0,1,.93-.12,4.07,4.07,0,0,1,1.4.21,3.21,3.21,0,0,1,1,.6l-.68.85a2.47,2.47,0,0,0-.72-.44,2.65,2.65,0,0,0-1-.18,2,2,0,0,0-1,.19.67.67,0,0,0-.36.64.66.66,0,0,0,.48.61,7.91,7.91,0,0,0,1.25.38A7.83,7.83,0,0,1,122,81a2.57,2.57,0,0,1,.69.37,1.68,1.68,0,0,1,.47.56,1.73,1.73,0,0,1,.17.8,1.6,1.6,0,0,1-.22.85,1.94,1.94,0,0,1-.59.61,2.79,2.79,0,0,1-.86.37,4.1,4.1,0,0,1-1,.12,3.55,3.55,0,0,1-2.73-1Z" style="fill:#003e6a"/><path d="M125.36,79.09H124.2v-1h1.16V76h1.24v2.1h1.87v1H126.6v3.16a1.71,1.71,0,0,0,.24,1.06.84.84,0,0,0,.68.29,1.39,1.39,0,0,0,.59-.11,1.85,1.85,0,0,0,.47-.33l.57.76a2.37,2.37,0,0,1-1.82.73,1.87,1.87,0,0,1-1.5-.55,2.6,2.6,0,0,1-.48-1.72Z" style="fill:#003e6a"/><path d="M130.1,79.45v-.74c0-.21,0-.42,0-.65h1.19l0,1a3.21,3.21,0,0,1,.29-.36,2.25,2.25,0,0,1,.43-.37,2.47,2.47,0,0,1,.59-.28,2.54,2.54,0,0,1,.78-.11,2.34,2.34,0,0,1,1.23.3,2,2,0,0,1,.77.86,4,4,0,0,1,.94-.81,2.55,2.55,0,0,1,1.39-.35,2.21,2.21,0,0,1,1.83.74,3.06,3.06,0,0,1,.59,2v3.85h-1.24V80.72a2,2,0,0,0-.35-1.32,1.26,1.26,0,0,0-1-.42,1.59,1.59,0,0,0-.71.16,1.88,1.88,0,0,0-.56.42,1.83,1.83,0,0,0-.37.61,2.11,2.11,0,0,0-.13.74v3.56h-1.24V80.72a2,2,0,0,0-.35-1.32,1.24,1.24,0,0,0-1-.42,1.56,1.56,0,0,0-.86.22,1.76,1.76,0,0,0-.56.57,2.43,2.43,0,0,0-.3.81,4.71,4.71,0,0,0-.09.91v3H130.1Z" style="fill:#003e6a"/><path d="M147.66,83.53a3.77,3.77,0,0,1-.33.32,2.81,2.81,0,0,1-.57.37,4.43,4.43,0,0,1-.83.31,4.06,4.06,0,0,1-1.08.13,3.64,3.64,0,0,1-1.37-.25,3,3,0,0,1-1.06-.7,3.15,3.15,0,0,1-.68-1.09,3.91,3.91,0,0,1-.24-1.41,3.66,3.66,0,0,1,.23-1.32,3.14,3.14,0,0,1,.66-1.06,3.18,3.18,0,0,1,1-.71,3.13,3.13,0,0,1,1.29-.26,3,3,0,0,1,1.42.32,2.82,2.82,0,0,1,1,.84,3.61,3.61,0,0,1,.56,1.2,5.48,5.48,0,0,1,.18,1.41h-5.06a1.91,1.91,0,0,0,.19.79,2,2,0,0,0,.46.62,2.21,2.21,0,0,0,.66.41,2.07,2.07,0,0,0,.79.15,2.85,2.85,0,0,0,1.34-.28,2.73,2.73,0,0,0,.76-.54Zm-1.12-2.83a2.08,2.08,0,0,0-.52-1.27,1.68,1.68,0,0,0-1.32-.52,2,2,0,0,0-.79.15,1.9,1.9,0,0,0-.6.4,1.8,1.8,0,0,0-.39.57,1.86,1.86,0,0,0-.15.67Z" style="fill:#003e6a"/><path d="M149.21,79.45v-.74q0-.31,0-.65h1.19l0,1c.08-.11.18-.23.3-.36a2,2,0,0,1,.44-.37,2.58,2.58,0,0,1,1.41-.39,2.28,2.28,0,0,1,1.86.73,3,3,0,0,1,.61,2v3.85H153.8V80.72a1.91,1.91,0,0,0-.39-1.32,1.4,1.4,0,0,0-1.09-.42,1.61,1.61,0,0,0-1.47.79,2.54,2.54,0,0,0-.31.8,4.38,4.38,0,0,0-.1.92v3h-1.24Z" style="fill:#003e6a"/><path d="M157.26,79.09H156.1v-1h1.16V76h1.24v2.1h1.87v1H158.5v3.16a1.71,1.71,0,0,0,.24,1.06.84.84,0,0,0,.68.29,1.4,1.4,0,0,0,.59-.11,1.82,1.82,0,0,0,.47-.33l.57.76a2.65,2.65,0,0,1-.82.56,2.62,2.62,0,0,1-1,.17,1.87,1.87,0,0,1-1.5-.55,2.6,2.6,0,0,1-.48-1.72Z" style="fill:#003e6a"/></svg>