<svg xmlns="http://www.w3.org/2000/svg" width="1224" height="157.276" viewBox="0 0 1224 157.276">
  <g id="g10" transform="translate(0 62.532)">
    <g id="g12" transform="translate(0 -62.532)">
      <path id="path14" d="M364.589-33.02Q351,30.951,337.473,94.606H288.287c1.073-5.111,2.113-10.1,3.172-15.092q10.966-51.6,21.939-103.207c1.1-5.17-1.808-9.107-7.314-9.235-9.557-.22-19.125-.06-28.689-.114-1.294-.007-1.311.775-1.5,1.66q-4.6,21.711-9.236,43.415-8.687,40.845-17.371,81.692c-.054.255-.134.5-.228.855H199.949c.708-3.431,1.4-6.813,2.113-10.19Q216.6,15.912,231.16-52.567c1.315-6.188,6-9.953,12.385-9.955q87.189-.006,174.382.022a41.868,41.868,0,0,1,19.108,4.387c10.949,5.537,16.949,16.662,14.873,28.775-1.784,10.4-4.145,20.7-6.331,31.029q-8.989,42.437-18.042,84.861c-.557,2.63-1.117,5.261-1.7,8.01h-49.2c1.278-6.007,2.545-11.972,3.813-17.937q10.408-49.045,20.812-98.092c.124-.592.275-1.179.392-1.772,1.194-5.971-1.744-9.654-7.934-9.76-5.319-.093-10.641-.021-15.963-.021H364.589" transform="translate(302.95 62.538)" fill="#fff"/>
      <path id="path16" d="M501.521,94.6H452.362c1.932-9.127,3.836-18.135,5.751-27.141q9.729-45.776,19.454-91.552c.882-4.168-1.241-7.5-5.4-8.511a14.643,14.643,0,0,0-3.394-.4q-28.084-.035-56.164-.014c-.53,0-1.06.048-1.757.083Q397.3,30.82,383.756,94.583H334.576c.657-3.127,1.294-6.186,1.942-9.242q12.037-56.73,24.071-113.46c1.757-8.288,3.5-16.579,5.292-24.861A11.842,11.842,0,0,1,377.592-62.5q58.391-.041,116.779.023a40.012,40.012,0,0,1,18.672,4.487C524-52.254,529.727-41.264,527.6-29.035c-1.915,10.989-4.427,21.877-6.737,32.795q-9.407,44.4-18.867,88.793c-.137.658-.3,1.31-.473,2.05" transform="translate(506.929 62.533)" fill="#fff"/>
      <path id="path18" d="M531.423,16.083h49.132c-1.13,5.349-2.217,10.535-3.317,15.717q-5.574,26.248-11.15,52.5c-1.382,6.558-5.942,10.395-12.663,10.4q-52.435.018-104.871-.029c-8.34-.018-16.365-1.7-23.34-6.6-9.246-6.493-12.807-15.743-11.181-26.6,1.523-10.159,4.014-20.175,6.134-30.243,3.934-18.688,7.82-37.388,11.888-56.047,3.793-17.392,14.906-28.327,31.208-34.4a55.583,55.583,0,0,1,19.6-3.3q55.871.034,111.742.011h2.653c-2.1,9.881-4.158,19.582-6.261,29.5H588.6q-47.385,0-94.77,0c-7.14,0-11.637,3.7-13.075,10.634-1.093,5.267-2.243,10.523-3.364,15.785q-6.57,30.883-13.126,61.769c-1.3,6.178,1.781,9.923,8.112,9.941,10.1.03,20.2.009,30.309.009,5.389,0,10.778-.056,16.164.035,1.546.026,2.19-.356,2.529-1.977,3.115-15.011,6.338-30,9.534-45,.151-.711.339-1.415.506-2.105" transform="translate(626.741 62.534)" fill="#fff"/>
      <path id="path20" d="M0,94.693c2.1-9.922,4.164-19.634,6.272-29.571h2.6q45.866,0,91.733,0c3.32,0,6.255-.912,8.456-3.526,3.039-3.612,2.5-7.344-1.427-9.9Q84.454,36.607,61.266,21.537C52.071,15.558,42.815,9.674,33.7,3.582,23.746-3.063,18.549-12.173,20.441-24.4A40.459,40.459,0,0,1,31.214-45.928c8.852-9.55,20-14.573,32.776-16.152a71.31,71.31,0,0,1,8.663-.427q50.313-.041,100.622-.018h2.57c-1.515,7.18-2.984,14.149-4.458,21.116-.487,2.3-1.056,4.59-1.45,6.909-.2,1.183-.707,1.513-1.867,1.5-5.926-.052-11.854-.023-17.78-.023H80.381c-3.606,0-6.813.952-9.026,4.019-2.725,3.776-2.072,6.933,1.922,9.53Q109.493,4.078,145.728,27.6c7.037,4.555,12.511,10.273,14.371,18.68,1.809,8.174-.284,15.788-4.232,22.91-7.159,12.915-18.4,20.493-32.543,23.8a64.857,64.857,0,0,1-14.386,1.639c-35.427.134-70.854.072-106.28.072H0" transform="translate(0 62.54)" fill="#fff"/>
      <path id="path22" d="M178.278-8.332,147.064,37.213h43.214C186.287,22.063,182.345,7.1,178.278-8.332Zm71.4,103.026h-9.115c-11.047,0-22.093-.039-33.138.043a2.176,2.176,0,0,1-2.562-1.989c-2-7.885-4.138-15.735-6.142-23.619-.384-1.512-.9-2.172-2.645-2.167q-33.742.11-67.485.017a3.286,3.286,0,0,0-3.106,1.648q-8.365,12.379-16.906,24.638a3.407,3.407,0,0,1-2.337,1.368c-14.009.083-28.019.059-42.027.056-.267,0-.533-.033-1.058-.068.352-.612.6-1.119.918-1.581q49.19-72.267,98.4-144.522c3.623-5.321,8.128-9.535,14.732-10.8a20.816,20.816,0,0,1,3.816-.232c5.927-.022,11.854-.01,17.781-.01,7.1,0,11.373,3.048,13.227,9.987,3.244,12.146,6.268,24.351,9.385,36.531q13.8,53.933,27.591,107.868c.215.841.4,1.689.674,2.832" transform="translate(95.691 62.539)" fill="#fff"/>
      <path id="path24" d="M274.422,65.07c-2.126,10.013-4.178,19.676-6.281,29.571h-2.163q-44.05,0-88.1-.018c-7.636-.012-15.017-1.37-21.727-5.253-9.95-5.76-15.265-16.331-13.37-27.673,1.64-9.809,3.853-19.526,5.916-29.262q8.159-38.59,16.409-77.158c1.258-5.905,2.505-11.812,3.769-17.77h49.193c-1.167,5.507-2.314,10.933-3.464,16.359Q204.4,1.923,194.2,49.979c-.392,1.843-.728,3.7-1.2,5.522-1.462,5.581,2.119,9.4,7.784,9.554,3.1.084,6.2.016,9.3.016h64.344" transform="translate(215.751 62.591)" fill="#fff"/>
      <path id="path26" d="M380.175-62.389c-2.465,11.63-4.9,23.139-7.344,34.645q-9.014,42.421-18.039,84.84-3.813,17.954-7.676,35.9c-.134.626-.778,1.618-1.211,1.632-8.595.292-17.083-.155-25.084-3.86-11.66-5.4-18.136-16.883-15.865-29.533,2.317-12.9,5.215-25.7,7.931-38.521q7.973-37.692,16.02-75.367c1.221-5.743,5.761-9.8,11.439-9.834,13-.079,26-.024,38.991-.018a7.841,7.841,0,0,1,.838.119" transform="translate(461.368 62.532)" fill="#fff"/>
    </g>
  </g>
</svg>
