<?xml version="1.0" encoding="UTF-8" standalone="no"?>
<svg
   xmlns:dc="http://purl.org/dc/elements/1.1/"
   xmlns:cc="http://creativecommons.org/ns#"
   xmlns:rdf="http://www.w3.org/1999/02/22-rdf-syntax-ns#"
   xmlns:svg="http://www.w3.org/2000/svg"
   xmlns="http://www.w3.org/2000/svg"
   viewBox="0 0 486.65332 62.533333"
   height="62.533333"
   width="486.65332"
   xml:space="preserve"
   id="svg2"
   version="1.1"><metadata
     id="metadata8"><rdf:RDF><cc:Work
         rdf:about=""><dc:format>image/svg+xml</dc:format><dc:type
           rdf:resource="http://purl.org/dc/dcmitype/StillImage" /></cc:Work></rdf:RDF></metadata><defs
     id="defs6" /><g
     transform="matrix(1.3333333,0,0,-1.3333333,0,62.533333)"
     id="g10"><g
       transform="scale(0.1)"
       id="g12"><path
         id="path14"
         style="fill:#231f20;fill-opacity:1;fill-rule:nonzero;stroke:none"
         d="m 1990.57,380.965 c -27.02,-127.172 -53.93,-253.84 -80.86,-380.574375 -49.03,0 -97.57,0 -146.67,0 3.2,15.242175 6.3,30.128875 9.46,45.003875 21.8,102.5855 43.63,205.1685 65.42,307.7575 3.28,15.418 -5.39,27.157 -21.81,27.539 -28.5,0.657 -57.03,0.18 -85.55,0.34 -3.86,0.02 -3.91,-2.312 -4.46,-4.949 -9.15,-43.16 -18.36,-86.305 -27.54,-129.461 -17.27,-81.199 -34.53,-162.4022 -51.8,-243.60147 -0.16,-0.76172 -0.4,-1.5039 -0.68,-2.55078 -48.63,0 -97.16,0 -146.46,0 2.11,10.23045 4.16,20.31645 6.3,30.38675 28.91,136.1325 57.84,272.2655 86.77,408.3985 3.92,18.453 17.88,29.68 36.93,29.684 173.33,0.011 346.67,0.058 520,-0.067 19.88,-0.016 39.05,-4.019 56.98,-13.082 32.65,-16.512 50.54,-49.684 44.35,-85.805 -5.32,-31.007 -12.36,-61.726 -18.88,-92.527 -17.87,-84.363 -35.86,-168.703 -53.8,-253.0507 -1.66,-7.8438 -3.33,-15.68755 -5.07,-23.886769 -48.78,0 -97.48,0 -146.7,0 3.81,17.914069 7.59,35.699269 11.37,53.488269 20.69,97.5002 41.37,195.0042 62.06,292.5042 0.37,1.765 0.82,3.515 1.17,5.285 3.56,17.805 -5.2,28.789 -23.66,29.105 -15.86,0.278 -31.73,0.063 -47.6,0.063 -13.02,0 -26.04,0 -39.27,0" /><path
         id="path16"
         style="fill:#231f20;fill-opacity:1;fill-rule:nonzero;stroke:none"
         d="m 3007.15,0.414063 c -49.1,0 -97.64,0 -146.59,0 5.76,27.214837 11.44,54.078137 17.15,80.933637 19.34,91.0003 38.7,181.9963 58.01,273.0043 2.63,12.429 -3.7,22.375 -16.11,25.378 -3.28,0.793 -6.74,1.18 -10.12,1.184 -55.83,0.07 -111.66,0.055 -167.48,0.043 -1.58,0 -3.16,-0.144 -5.24,-0.246 -26.93,-126.731 -53.83,-253.348 -80.79,-380.234437 -48.82,0 -97.34,0 -146.65,0 1.96,9.324217 3.86,18.445337 5.79,27.558637 23.93,112.7778 47.85,225.5548 71.78,338.3318 5.24,24.715 10.44,49.438 15.78,74.133 3.62,16.777 17.68,28.387 34.92,28.398 116.08,0.082 232.15,0.161 348.23,-0.07 19.44,-0.039 38.3,-4.273 55.68,-13.379 32.66,-17.113 49.75,-49.883 43.4,-86.351 -5.71,-32.77 -13.2,-65.235 -20.09,-97.793 -18.7,-88.27 -37.5,-176.5198 -56.26,-264.77766 -0.41,-1.96093 -0.9,-3.90625 -1.41,-6.113277" /><path
         id="path18"
         style="fill:#231f20;fill-opacity:1;fill-rule:nonzero;stroke:none"
         d="m 3453.59,234.555 c 48.87,0 97.38,0 146.51,0 -3.37,-15.95 -6.61,-31.414 -9.89,-46.867 -11.08,-52.18 -22.24,-104.3442 -33.25,-156.5396 -4.12,-19.5546 -17.72,-30.996056 -37.76,-31.003869 -104.24,-0.035156 -208.48,-0.1523435 -312.72,0.085938 -24.87,0.054687 -48.8,5.074221 -69.6,19.679731 -27.57,19.3632 -38.19,46.9453 -33.34,79.3242 4.54,30.2926 11.97,60.1606 18.29,90.1836 11.73,55.727 23.32,111.488 35.45,167.129 11.31,51.863 44.45,84.469 93.06,102.578 18.76,6.992 38.38,9.863 58.45,9.852 111.07,-0.067 222.14,-0.032 333.21,-0.032 2.39,0 4.78,0 7.91,0 -6.26,-29.465 -12.4,-58.394 -18.67,-87.98 -2.42,0 -4.78,0 -7.14,0 -94.2,0 -188.4,0.015 -282.6,-0.012 -21.29,-0.004 -34.7,-11.039 -38.99,-31.711 -3.26,-15.707 -6.69,-31.379 -10.03,-47.07 -13.06,-61.395 -26.17,-122.777 -39.14,-184.192 -3.88,-18.4214 5.31,-29.5894 24.19,-29.6441 30.13,-0.0898 60.25,-0.0273 90.38,-0.0273 16.07,0 32.14,0.168 48.2,-0.1055 4.61,-0.0781 6.53,1.0625 7.54,5.8946 9.29,44.7613 18.9,89.4613 28.43,134.1793 0.45,2.121 1.01,4.219 1.51,6.278" /><path
         id="path20"
         style="fill:#231f20;fill-opacity:1;fill-rule:nonzero;stroke:none"
         d="M 0,0.128906 C 6.27344,29.7148 12.418,58.6758 18.7031,88.3086 c 2.6407,0 5.1914,0 7.7422,0 91.1797,0 182.3637,0.0078 273.5427,-0.0117 9.899,0 18.653,2.7187 25.215,10.5156 9.063,10.7695 7.449,21.8985 -4.254,29.5195 -46.074,30.004 -92.168,59.969 -138.258,89.945 -27.418,17.828 -55.019,35.375 -82.214,53.539 -29.6684,19.817 -45.1645,46.981 -39.5239,83.43 3.8125,24.641 15.2266,45.977 32.125,64.207 26.3949,28.477 59.6249,43.457 97.7379,48.164 8.536,1.055 17.219,1.266 25.832,1.274 100.02,0.082 200.036,0.054 300.051,0.054 2.375,0 4.75,0 7.664,0 -4.519,-21.41 -8.898,-42.191 -13.293,-62.968 -1.453,-6.864 -3.148,-13.688 -4.324,-20.602 -0.598,-3.527 -2.109,-4.512 -5.566,-4.48 -17.672,0.156 -35.348,0.07 -53.02,0.07 -69.488,0 -138.98,0 -208.469,0 -10.753,0.004 -20.316,-2.84 -26.914,-11.985 -8.125,-11.261 -6.179,-20.675 5.731,-28.417 71.996,-46.817 143.949,-93.696 216.047,-140.352 20.984,-13.582 37.308,-30.633 42.855,-55.703 5.395,-24.375 -0.847,-47.0783 -12.621,-68.3166 C 443.441,37.6797 409.918,15.082 367.746,5.23047 353.813,1.97656 339.172,0.398438 324.848,0.34375 219.207,-0.0546875 113.566,0.128906 7.92578,0.128906 c -2.38281,0 -4.76562,0 -7.92578,0" /><path
         id="path22"
         style="fill:#231f20;fill-opacity:1;fill-rule:nonzero;stroke:none"
         d="m 816.961,307.348 c -31.441,-45.875 -62.094,-90.606 -93.078,-135.813 43.625,0 86.004,0 128.863,0 -11.902,45.176 -23.656,89.785 -35.785,135.813 z M 1029.88,0.128906 c -9.55,0 -18.36,0 -27.18,0 -32.942,0 -65.88,0.117188 -98.817,-0.128906 -4.766,-0.0351563 -6.516,1.49219 -7.641,5.92969 -5.965,23.51171 -12.34,46.92191 -18.316,70.42971 -1.145,4.5078 -2.672,6.4765 -7.887,6.4609 -67.078,-0.2187 -134.16,-0.1836 -201.238,-0.0508 -4.317,0.0078 -6.844,-1.3398 -9.262,-4.914 C 642.91,53.2461 626.109,28.7539 609.125,4.38672 607.699,2.34375 604.527,0.320313 602.156,0.308594 560.383,0.0625 518.605,0.132813 476.832,0.140625 c -0.797,0 -1.59,0.097656 -3.156,0.203125 1.051,1.82422 1.797,3.33594 2.738,4.71484 C 574.203,148.723 671.992,292.391 769.836,436.016 c 10.805,15.867 24.238,28.433 43.93,32.207 3.703,0.711 7.582,0.675 11.379,0.691 17.675,0.066 35.347,0.031 53.023,0.031 21.184,0 33.914,-9.09 39.441,-29.781 9.672,-36.219 18.692,-72.613 27.985,-108.934 27.426,-107.218 54.856,-214.437 82.276,-321.65578 0.64,-2.50781 1.2,-5.03516 2.01,-8.445314" /><path
         id="path24"
         style="fill:#231f20;fill-opacity:1;fill-rule:nonzero;stroke:none"
         d="m 1461.67,88.3086 c -6.34,-29.8594 -12.46,-58.6719 -18.73,-88.179694 -2.19,0 -4.32,0 -6.45,0 -87.57,0 -175.14,-0.0781247 -262.72,0.054688 -22.77,0.035156 -44.78,4.085936 -64.79,15.664106 -29.67,17.1757 -45.52,48.6992 -39.87,82.5195 4.89,29.2498 11.49,58.2268 17.64,87.2578 16.22,76.715 32.61,153.391 48.93,230.082 3.75,17.609 7.47,35.223 11.24,52.988 48.93,0 97.49,0 146.69,0 -3.48,-16.422 -6.9,-32.601 -10.33,-48.781 -20.27,-95.535 -40.55,-191.07 -60.82,-286.605 -1.17,-5.496 -2.17,-11.036 -3.59,-16.465 -4.36,-16.641 6.32,-28.0276 23.21,-28.4885 9.24,-0.25 18.48,-0.0469 27.72,-0.0469 61.46,0 122.92,0 184.38,0 2.18,0 4.35,0 7.49,0" /><path
         id="path26"
         style="fill:#231f20;fill-opacity:1;fill-rule:nonzero;stroke:none"
         d="m 2509.44,468.563 c -7.35,-34.68 -14.61,-69 -21.9,-103.309 -17.92,-84.332 -35.85,-168.66 -53.79,-252.988 -7.58,-35.6918 -15.15,-71.3871 -22.89,-107.04725 -0.4,-1.86719 -2.32,-4.824219 -3.61,-4.867187 -25.63,-0.871094 -50.94,0.460937 -74.8,11.511737 -34.77,16.1055 -54.08,50.3437 -47.31,88.0664 6.91,38.4613 15.55,76.6213 23.65,114.8673 15.85,74.93 31.85,149.824 47.77,224.742 3.64,17.125 17.18,29.219 34.11,29.324 38.76,0.235 77.52,0.071 116.27,0.055 0.59,0 1.18,-0.164 2.5,-0.355" /></g></g></svg>