<?xml version="1.0" standalone="no"?>
<!DOCTYPE svg PUBLIC "-//W3C//DTD SVG 20010904//EN"
 "http://www.w3.org/TR/2001/REC-SVG-20010904/DTD/svg10.dtd">
<svg version="1.0" xmlns="http://www.w3.org/2000/svg"
 width="300.000000pt" height="90.000000pt" viewBox="0 0 300.000000 90.000000"
 preserveAspectRatio="xMidYMid meet">

<g transform="translate(0.000000,90.000000) scale(0.100000,-0.100000)"
fill="#000000" stroke="none">
<path d="M368 859 c-9 -25 -21 -43 -28 -41 -7 2 -26 0 -42 -4 l-30 -6 29 -30
c25 -27 28 -37 32 -114 l3 -84 -73 0 c-86 0 -145 14 -158 37 -7 14 -10 14 -20
-6 -8 -14 -9 -27 -2 -39 8 -14 3 -19 -37 -33 l-46 -15 45 -19 c40 -17 45 -22
45 -51 0 -43 11 -53 30 -26 16 23 38 28 153 36 l74 5 -7 -66 c-8 -75 -28 -131
-50 -139 -26 -10 -7 -24 33 -24 34 0 39 -3 47 -32 13 -44 30 -45 44 -4 10 31
15 35 35 30 13 -3 32 -1 42 5 10 6 13 11 5 11 -21 0 -40 61 -43 135 l-3 70 65
3 c85 4 126 -5 155 -33 23 -23 23 -23 30 -3 3 11 3 30 0 42 -5 19 0 24 31 32
49 12 52 29 9 44 -30 9 -35 15 -31 33 3 12 1 28 -4 36 -7 11 -13 10 -34 -3
-20 -13 -145 -34 -210 -36 -5 0 -7 45 -5 99 3 88 6 102 27 125 l24 25 -27 7
c-15 3 -32 1 -40 -5 -16 -13 -26 -4 -26 24 0 12 -6 30 -14 40 -12 17 -14 15
-28 -26z"/>
<path d="M830 750 l0 -30 90 0 90 0 0 -245 0 -245 30 0 30 0 0 245 0 245 85 0
85 0 0 30 0 30 -205 0 -205 0 0 -30z"/>
<path d="M2040 661 c0 -48 -2 -51 -25 -51 -18 0 -25 -5 -25 -20 0 -15 7 -20
25 -20 l25 0 0 -150 c0 -135 2 -152 19 -169 27 -27 84 -36 132 -22 43 13 55
30 65 90 6 39 5 41 -18 41 -22 0 -26 -6 -32 -40 -7 -43 -33 -58 -81 -46 l-25
6 0 135 c0 74 -1 138 -2 143 -2 4 30 8 70 10 63 3 72 5 72 22 0 17 -9 19 -72
22 l-73 3 0 45 c0 42 -2 45 -27 48 -27 3 -28 2 -28 -47z"/>
<path d="M1361 607 c-61 -21 -76 -54 -79 -175 -5 -169 26 -207 168 -207 115 0
160 26 160 92 0 25 -4 29 -27 28 -22 -1 -29 -7 -31 -26 -5 -37 -30 -49 -99
-49 -83 0 -113 25 -113 95 l0 45 135 0 135 0 0 58 c0 80 -24 123 -75 139 -52
15 -131 15 -174 0z m141 -37 c32 -9 39 -16 48 -51 18 -66 14 -69 -105 -69
l-105 0 0 38 c0 47 16 70 55 81 41 13 64 13 107 1z"/>
<path d="M2390 614 c-77 -28 -90 -57 -90 -194 0 -166 26 -195 171 -195 135 0
162 33 162 194 1 165 -21 192 -151 198 -43 1 -84 0 -92 -3z m166 -65 c16 -18
19 -37 19 -131 0 -103 -1 -111 -24 -129 -18 -14 -39 -19 -91 -19 -97 0 -105
11 -105 150 0 140 7 150 110 150 60 0 75 -3 91 -21z"/>
<path d="M2758 596 c-36 -24 -38 -24 -38 -6 0 15 -7 20 -25 20 l-25 0 0 -190
0 -190 30 0 30 0 0 145 c0 140 1 147 23 169 46 45 150 42 174 -5 8 -16 13 -73
13 -166 l0 -143 30 0 30 0 0 125 c0 142 -13 215 -42 241 -14 14 -40 20 -91 22
-64 3 -76 1 -109 -22z"/>
<path d="M1642 453 c4 -199 15 -219 122 -230 41 -4 60 0 99 20 44 23 47 23 47
6 0 -14 7 -19 25 -19 l25 0 0 190 0 190 -30 0 -30 0 0 -144 c0 -177 -5 -187
-97 -194 -52 -4 -64 -1 -82 17 -19 19 -21 32 -21 171 l0 150 -31 0 -31 0 4
-157z"/>
<path d="M992 125 c-1 -29 31 -115 43 -116 6 0 19 27 30 62 l21 62 13 -43 c23
-76 31 -94 41 -84 13 13 49 134 40 134 -4 0 -13 -21 -19 -48 -20 -79 -27 -82
-46 -14 -10 34 -23 62 -30 62 -6 0 -19 -28 -29 -61 -9 -34 -19 -60 -21 -57 -3
2 -13 31 -24 64 -10 32 -19 50 -19 39z"/>
<path d="M1320 68 c4 -63 5 -66 8 -25 3 42 6 47 28 47 22 0 24 -4 24 -46 0
-25 3 -43 8 -40 4 2 6 25 4 50 -4 43 -6 46 -33 46 -22 0 -29 5 -29 20 0 11 -3
20 -7 20 -5 0 -6 -33 -3 -72z"/>
<path d="M1473 70 c0 -41 2 -58 4 -38 2 21 2 55 0 76 -2 20 -4 3 -4 -38z"/>
<path d="M1750 70 l0 -70 39 0 c50 0 71 21 71 70 0 63 -6 70 -61 70 l-49 0 0
-70z m98 12 c4 -53 -10 -72 -54 -72 l-34 0 0 61 0 60 43 -3 c42 -3 42 -3 45
-46z"/>
<path d="M2350 68 c0 -39 3 -68 8 -64 9 10 10 136 0 136 -5 0 -8 -32 -8 -72z"/>
<path d="M2632 73 l3 -68 38 -3 c21 -2 45 2 52 8 20 17 30 77 16 106 -9 21
-17 24 -61 24 l-51 0 3 -67z m98 31 c11 -28 3 -75 -14 -86 -6 -4 -23 -8 -38
-8 -27 0 -28 1 -28 60 l0 60 35 0 c29 0 37 -5 45 -26z"/>
<path d="M2916 74 c2 -89 14 -95 14 -6 0 40 -3 72 -7 72 -5 0 -7 -30 -7 -66z"/>
<path d="M1499 111 c-2 -6 -2 -32 0 -57 4 -52 23 -67 49 -38 16 17 16 17 0 5
-24 -18 -38 -5 -38 35 0 28 4 34 23 35 20 1 20 2 2 6 -11 3 -23 10 -26 15 -4
7 -8 6 -10 -1z"/>
<path d="M2388 110 c-2 -7 -1 -33 2 -59 4 -37 9 -46 24 -46 11 0 20 6 22 13 1
7 0 8 -3 2 -2 -5 -11 -10 -19 -10 -10 0 -14 12 -14 40 0 34 3 40 23 41 20 1
20 2 2 6 -11 3 -23 10 -26 15 -4 6 -8 6 -11 -2z"/>
<path d="M2948 110 c-2 -7 -1 -33 2 -59 4 -37 9 -46 24 -46 11 0 21 7 23 15 4
12 3 13 -5 1 -15 -21 -32 -3 -32 35 0 28 4 34 23 35 20 1 20 2 2 6 -11 3 -23
10 -26 15 -4 6 -8 6 -11 -2z"/>
<path d="M1203 50 c0 -30 2 -43 4 -28 2 16 2 40 0 55 -2 16 -4 3 -4 -27z"/>
<path d="M1228 88 c-9 -24 4 -38 33 -38 22 0 29 -5 29 -20 0 -15 -7 -20 -25
-20 -14 0 -25 5 -25 10 0 6 -5 10 -11 10 -8 0 -7 -5 1 -16 8 -8 25 -14 39 -12
20 2 26 9 26 28 0 20 -6 26 -27 28 -17 2 -28 9 -28 19 0 11 8 14 29 11 17 -2
28 -1 25 4 -8 13 -61 9 -66 -4z"/>
<path d="M1872 48 c1 -51 2 -51 5 -10 5 47 23 63 50 41 14 -12 16 -12 11 1 -2
8 -19 16 -36 18 l-32 3 2 -53z"/>
<path d="M1957 94 c-4 -4 -7 -24 -7 -45 0 -33 4 -40 25 -45 29 -7 55 0 55 16
0 7 -7 6 -19 -1 -22 -15 -51 -5 -51 16 0 11 10 15 36 15 31 0 35 3 32 23 -2
16 -11 23 -33 25 -17 2 -34 0 -38 -4z m63 -19 c0 -10 -10 -15 -30 -15 -29 0
-38 9 -23 23 13 13 53 7 53 -8z"/>
<path d="M2050 92 c0 -5 14 -7 30 -4 23 3 30 0 30 -12 0 -11 -9 -16 -29 -16
-34 0 -45 -12 -36 -40 5 -16 14 -20 41 -18 35 2 35 2 32 48 -3 43 -5 45 -35
48 -18 2 -33 -1 -33 -6z m58 -59 c-4 -20 -35 -30 -50 -15 -15 15 0 32 28 32
19 0 25 -5 22 -17z"/>
<path d="M2143 50 c0 -30 2 -43 4 -28 2 16 2 40 0 55 -2 16 -4 3 -4 -27z"/>
<path d="M2178 93 c19 -4 22 -11 24 -51 l1 -47 6 45 c5 40 9 45 31 45 22 0 26
-5 31 -45 l7 -45 -2 50 -1 50 -60 1 c-33 0 -50 -1 -37 -3z"/>
<path d="M2767 94 c-4 -4 -7 -25 -7 -46 0 -43 14 -54 56 -44 23 6 25 11 22 49
-3 39 -5 42 -33 45 -17 2 -34 0 -38 -4z m58 -44 c0 -31 -3 -35 -25 -35 -22 0
-25 5 -28 38 -3 37 -2 38 25 35 25 -3 28 -7 28 -38z"/>
<path d="M1638 53 c6 -2 18 -2 25 0 6 3 1 5 -13 5 -14 0 -19 -2 -12 -5z"/>
<path d="M2523 53 c9 -2 23 -2 30 0 6 3 -1 5 -18 5 -16 0 -22 -2 -12 -5z"/>
</g>
</svg>
