<svg xmlns="http://www.w3.org/2000/svg" width="634" height="227" viewBox="0 0 634 227">
  <g id="Darren_Withey_Logo_2" data-name="Darren Withey Logo 2" transform="translate(-145 -402)">
    <g id="Group_1" data-name="Group 1" transform="translate(389.372 402)">
      <text id="PROFESSIONAL_SQUASH_COACH" data-name="PROFESSIONAL SQUASH COACH" transform="translate(8.628 219)" fill="#c91900" font-size="22" font-family="Avenir-BlackOblique, Avenir" font-weight="800" font-style="oblique" letter-spacing="0.025em"><tspan x="0" y="0">PROFESSIONAL SQUASH COACH</tspan></text>
      <text id="DARREN" transform="translate(-0.372 94)" fill="#1a1a1a" font-size="94" font-family="Avenir-Heavy, Avenir" font-weight="800"><tspan x="0" y="0">DARREN</tspan></text>
      <text id="WITHEY" transform="translate(3.628 184)" fill="#1a1a1a" font-size="95" font-family="Avenir-Heavy, Avenir" font-weight="800" letter-spacing="0.045em"><tspan x="0" y="0">WITHEY</tspan></text>
    </g>
    <g id="Group_2" data-name="Group 2" transform="translate(145 408.081)">
      <circle id="Ellipse_1" data-name="Ellipse 1" cx="110.5" cy="110.5" r="110.5" transform="translate(0 -0.081)" fill="#464646"/>
      <path id="Intersection_1" data-name="Intersection 1" d="M0,70.446A111.079,111.079,0,0,1,3.395,43.116,109.948,109.948,0,0,1,90.758,0C151.643,0,201,49.5,201,110.554a111.072,111.072,0,0,1-3.394,27.33A109.949,109.949,0,0,1,110.242,181C49.357,181,0,131.5,0,70.446Z" transform="translate(20 -0.081)" fill="#575757"/>
      <g id="Ellipse_4" data-name="Ellipse 4" transform="translate(0 -0.081)" fill="none" stroke="#222" stroke-width="8">
        <circle cx="110.5" cy="110.5" r="110.5" stroke="none"/>
        <circle cx="110.5" cy="110.5" r="106.5" fill="none"/>
      </g>
      <ellipse id="Ellipse_5" data-name="Ellipse 5" cx="9.239" cy="7.919" rx="9.239" ry="7.919" transform="translate(90.136 47.136) rotate(-34)" fill="#fff500"/>
      <ellipse id="Ellipse_6" data-name="Ellipse 6" cx="9" cy="9.5" rx="9" ry="9.5" transform="translate(132 49.919)" fill="#fff500"/>
    </g>
  </g>
</svg>
